<svg xmlns="http://www.w3.org/2000/svg" width="317.5px" height="370.4px" viewBox="0 0 317.5 370.4">
<rect width="100%" height="100%" fill="white"/>
<text x="158.7" y="37.8" text-anchor="middle" font-family="monospace" font-size="13.2" fill="#333">DICT_4X4_50 — 30.0mm markers — print at 100%</text>
<rect x="15.12" y="68.03" width="136.06" height="136.06" fill="white" stroke="#bbb" stroke-width="0.6" stroke-dasharray="3,2"/>
<rect x="26.46" y="79.37" width="113.39" height="113.39" fill="white"/>
<rect x="26.46" y="79.37" width="18.90" height="18.90" fill="black"/>
<rect x="45.35" y="79.37" width="18.90" height="18.90" fill="black"/>
<rect x="64.25" y="79.37" width="18.90" height="18.90" fill="black"/>
<rect x="83.15" y="79.37" width="18.90" height="18.90" fill="black"/>
<rect x="102.05" y="79.37" width="18.90" height="18.90" fill="black"/>
<rect x="120.94" y="79.37" width="18.90" height="18.90" fill="black"/>
<rect x="26.46" y="98.27" width="18.90" height="18.90" fill="black"/>
<rect x="64.25" y="98.27" width="18.90" height="18.90" fill="black"/>
<rect x="120.94" y="98.27" width="18.90" height="18.90" fill="black"/>
<rect x="26.46" y="117.17" width="18.90" height="18.90" fill="black"/>
<rect x="45.35" y="117.17" width="18.90" height="18.90" fill="black"/>
<rect x="83.15" y="117.17" width="18.90" height="18.90" fill="black"/>
<rect x="120.94" y="117.17" width="18.90" height="18.90" fill="black"/>
<rect x="26.46" y="136.06" width="18.90" height="18.90" fill="black"/>
<rect x="45.35" y="136.06" width="18.90" height="18.90" fill="black"/>
<rect x="64.25" y="136.06" width="18.90" height="18.90" fill="black"/>
<rect x="120.94" y="136.06" width="18.90" height="18.90" fill="black"/>
<rect x="26.46" y="154.96" width="18.90" height="18.90" fill="black"/>
<rect x="45.35" y="154.96" width="18.90" height="18.90" fill="black"/>
<rect x="64.25" y="154.96" width="18.90" height="18.90" fill="black"/>
<rect x="102.05" y="154.96" width="18.90" height="18.90" fill="black"/>
<rect x="120.94" y="154.96" width="18.90" height="18.90" fill="black"/>
<rect x="26.46" y="173.86" width="18.90" height="18.90" fill="black"/>
<rect x="45.35" y="173.86" width="18.90" height="18.90" fill="black"/>
<rect x="64.25" y="173.86" width="18.90" height="18.90" fill="black"/>
<rect x="83.15" y="173.86" width="18.90" height="18.90" fill="black"/>
<rect x="102.05" y="173.86" width="18.90" height="18.90" fill="black"/>
<rect x="120.94" y="173.86" width="18.90" height="18.90" fill="black"/>
<text x="83.1" y="217.3" text-anchor="middle" font-family="monospace" font-size="11.3" fill="#444">ID 0</text>
<rect x="166.30" y="68.03" width="136.06" height="136.06" fill="white" stroke="#bbb" stroke-width="0.6" stroke-dasharray="3,2"/>
<rect x="177.64" y="79.37" width="113.39" height="113.39" fill="white"/>
<rect x="177.64" y="79.37" width="18.90" height="18.90" fill="black"/>
<rect x="196.54" y="79.37" width="18.90" height="18.90" fill="black"/>
<rect x="215.43" y="79.37" width="18.90" height="18.90" fill="black"/>
<rect x="234.33" y="79.37" width="18.90" height="18.90" fill="black"/>
<rect x="253.23" y="79.37" width="18.90" height="18.90" fill="black"/>
<rect x="272.13" y="79.37" width="18.90" height="18.90" fill="black"/>
<rect x="177.64" y="98.27" width="18.90" height="18.90" fill="black"/>
<rect x="196.54" y="98.27" width="18.90" height="18.90" fill="black"/>
<rect x="215.43" y="98.27" width="18.90" height="18.90" fill="black"/>
<rect x="234.33" y="98.27" width="18.90" height="18.90" fill="black"/>
<rect x="253.23" y="98.27" width="18.90" height="18.90" fill="black"/>
<rect x="272.13" y="98.27" width="18.90" height="18.90" fill="black"/>
<rect x="177.64" y="117.17" width="18.90" height="18.90" fill="black"/>
<rect x="272.13" y="117.17" width="18.90" height="18.90" fill="black"/>
<rect x="177.64" y="136.06" width="18.90" height="18.90" fill="black"/>
<rect x="215.43" y="136.06" width="18.90" height="18.90" fill="black"/>
<rect x="234.33" y="136.06" width="18.90" height="18.90" fill="black"/>
<rect x="272.13" y="136.06" width="18.90" height="18.90" fill="black"/>
<rect x="177.64" y="154.96" width="18.90" height="18.90" fill="black"/>
<rect x="215.43" y="154.96" width="18.90" height="18.90" fill="black"/>
<rect x="253.23" y="154.96" width="18.90" height="18.90" fill="black"/>
<rect x="272.13" y="154.96" width="18.90" height="18.90" fill="black"/>
<rect x="177.64" y="173.86" width="18.90" height="18.90" fill="black"/>
<rect x="196.54" y="173.86" width="18.90" height="18.90" fill="black"/>
<rect x="215.43" y="173.86" width="18.90" height="18.90" fill="black"/>
<rect x="234.33" y="173.86" width="18.90" height="18.90" fill="black"/>
<rect x="253.23" y="173.86" width="18.90" height="18.90" fill="black"/>
<rect x="272.13" y="173.86" width="18.90" height="18.90" fill="black"/>
<text x="234.3" y="217.3" text-anchor="middle" font-family="monospace" font-size="11.3" fill="#444">ID 1</text>
<rect x="15.12" y="219.21" width="136.06" height="136.06" fill="white" stroke="#bbb" stroke-width="0.6" stroke-dasharray="3,2"/>
<rect x="26.46" y="230.55" width="113.39" height="113.39" fill="white"/>
<rect x="26.46" y="230.55" width="18.90" height="18.90" fill="black"/>
<rect x="45.35" y="230.55" width="18.90" height="18.90" fill="black"/>
<rect x="64.25" y="230.55" width="18.90" height="18.90" fill="black"/>
<rect x="83.15" y="230.55" width="18.90" height="18.90" fill="black"/>
<rect x="102.05" y="230.55" width="18.90" height="18.90" fill="black"/>
<rect x="120.94" y="230.55" width="18.90" height="18.90" fill="black"/>
<rect x="26.46" y="249.45" width="18.90" height="18.90" fill="black"/>
<rect x="45.35" y="249.45" width="18.90" height="18.90" fill="black"/>
<rect x="64.25" y="249.45" width="18.90" height="18.90" fill="black"/>
<rect x="120.94" y="249.45" width="18.90" height="18.90" fill="black"/>
<rect x="26.46" y="268.35" width="18.90" height="18.90" fill="black"/>
<rect x="45.35" y="268.35" width="18.90" height="18.90" fill="black"/>
<rect x="64.25" y="268.35" width="18.90" height="18.90" fill="black"/>
<rect x="120.94" y="268.35" width="18.90" height="18.90" fill="black"/>
<rect x="26.46" y="287.24" width="18.90" height="18.90" fill="black"/>
<rect x="45.35" y="287.24" width="18.90" height="18.90" fill="black"/>
<rect x="64.25" y="287.24" width="18.90" height="18.90" fill="black"/>
<rect x="102.05" y="287.24" width="18.90" height="18.90" fill="black"/>
<rect x="120.94" y="287.24" width="18.90" height="18.90" fill="black"/>
<rect x="26.46" y="306.14" width="18.90" height="18.90" fill="black"/>
<rect x="83.15" y="306.14" width="18.90" height="18.90" fill="black"/>
<rect x="120.94" y="306.14" width="18.90" height="18.90" fill="black"/>
<rect x="26.46" y="325.04" width="18.90" height="18.90" fill="black"/>
<rect x="45.35" y="325.04" width="18.90" height="18.90" fill="black"/>
<rect x="64.25" y="325.04" width="18.90" height="18.90" fill="black"/>
<rect x="83.15" y="325.04" width="18.90" height="18.90" fill="black"/>
<rect x="102.05" y="325.04" width="18.90" height="18.90" fill="black"/>
<rect x="120.94" y="325.04" width="18.90" height="18.90" fill="black"/>
<text x="83.1" y="368.5" text-anchor="middle" font-family="monospace" font-size="11.3" fill="#444">ID 2</text>
<rect x="166.30" y="219.21" width="136.06" height="136.06" fill="white" stroke="#bbb" stroke-width="0.6" stroke-dasharray="3,2"/>
<rect x="177.64" y="230.55" width="113.39" height="113.39" fill="white"/>
<rect x="177.64" y="230.55" width="18.90" height="18.90" fill="black"/>
<rect x="196.54" y="230.55" width="18.90" height="18.90" fill="black"/>
<rect x="215.43" y="230.55" width="18.90" height="18.90" fill="black"/>
<rect x="234.33" y="230.55" width="18.90" height="18.90" fill="black"/>
<rect x="253.23" y="230.55" width="18.90" height="18.90" fill="black"/>
<rect x="272.13" y="230.55" width="18.90" height="18.90" fill="black"/>
<rect x="177.64" y="249.45" width="18.90" height="18.90" fill="black"/>
<rect x="215.43" y="249.45" width="18.90" height="18.90" fill="black"/>
<rect x="234.33" y="249.45" width="18.90" height="18.90" fill="black"/>
<rect x="272.13" y="249.45" width="18.90" height="18.90" fill="black"/>
<rect x="177.64" y="268.35" width="18.90" height="18.90" fill="black"/>
<rect x="215.43" y="268.35" width="18.90" height="18.90" fill="black"/>
<rect x="234.33" y="268.35" width="18.90" height="18.90" fill="black"/>
<rect x="272.13" y="268.35" width="18.90" height="18.90" fill="black"/>
<rect x="177.64" y="287.24" width="18.90" height="18.90" fill="black"/>
<rect x="196.54" y="287.24" width="18.90" height="18.90" fill="black"/>
<rect x="234.33" y="287.24" width="18.90" height="18.90" fill="black"/>
<rect x="253.23" y="287.24" width="18.90" height="18.90" fill="black"/>
<rect x="272.13" y="287.24" width="18.90" height="18.90" fill="black"/>
<rect x="177.64" y="306.14" width="18.90" height="18.90" fill="black"/>
<rect x="196.54" y="306.14" width="18.90" height="18.90" fill="black"/>
<rect x="253.23" y="306.14" width="18.90" height="18.90" fill="black"/>
<rect x="272.13" y="306.14" width="18.90" height="18.90" fill="black"/>
<rect x="177.64" y="325.04" width="18.90" height="18.90" fill="black"/>
<rect x="196.54" y="325.04" width="18.90" height="18.90" fill="black"/>
<rect x="215.43" y="325.04" width="18.90" height="18.90" fill="black"/>
<rect x="234.33" y="325.04" width="18.90" height="18.90" fill="black"/>
<rect x="253.23" y="325.04" width="18.90" height="18.90" fill="black"/>
<rect x="272.13" y="325.04" width="18.90" height="18.90" fill="black"/>
<text x="234.3" y="368.5" text-anchor="middle" font-family="monospace" font-size="11.3" fill="#444">ID 3</text>
</svg>